# xmcd CD database file
#
# Track frame offsets:
#	150
#	38007
#	64417
#	75207
#	103535
#	128697
#	142937
#	162915
#	179587
#	201835
#	222685
#	237630
#
# Disc length: 3468 seconds
#
# Revision: 0
# Processed by: cddbd v1.5PL3 Copyright (c) Steve Scherf et al.
# Submitted via: CDex 1.51
#
DISCID=aa0d8a0c
DTITLE=Chema Saiz - Solo Album
DYEAR=1999
DGENRE=Jazz
TTITLE0=Estaba la pastora
TTITLE1=Quisiera ser tan alta
TTITLE2=Tres hojitas
TTITLE3=Debajo de un botón
TTITLE4=Jota in blue
TTITLE5=Estaba el señor Don Gato
TTITLE6=Pin Pon
TTITLE7=Me casó mi madre
TTITLE8=El gato montés
TTITLE9=Mambrú
TTITLE10=La chata merengüela
TTITLE11=Soy la reina de los mares
EXTD=YEAR: 1999
EXTT0=
EXTT1=
EXTT2=
EXTT3=
EXTT4=
EXTT5=
EXTT6=
EXTT7=
EXTT8=
EXTT9=
EXTT10=
EXTT11=
PLAYORDER=
